<svg width="33" height="33" viewBox="0 0 33 33" fill="none" xmlns="http://www.w3.org/2000/svg">
<g clip-path="url(#clip0_21_340)">
<path d="M24.7669 18.7345L16.6136 26.4199C16.47 26.5543 16.2939 26.6191 16.1132 26.6191C15.9326 26.6191 15.7557 26.5531 15.6143 26.4195L7.461 18.734C7.15863 18.4473 7.13621 17.9609 7.41124 17.6459C7.68702 17.3291 8.15662 17.3096 8.45867 17.5933L15.372 24.1129V6.63378C15.372 6.20892 15.7035 5.86523 16.0716 5.86523C16.4396 5.86523 16.8545 6.20897 16.8545 6.63378V24.1125L23.7662 17.5944C24.0681 17.3107 24.538 17.3302 24.8137 17.647C25.0912 17.9609 25.068 18.4473 24.7669 18.7345Z" fill="#8787DE"/>
</g>
<defs>
<clipPath id="clip0_21_340">
<rect width="17.7891" height="23.7188" fill="white" transform="translate(7.21875 4.38281)"/>
</clipPath>
</defs>
</svg>
