<svg width="139" height="136" viewBox="0 0 139 136" fill="none" xmlns="http://www.w3.org/2000/svg">
<path d="M23.1064 5.06246C24.2654 4.2249 25.412 3.96593 26.619 4.09424C27.8963 4.23002 29.3714 4.81859 31.0261 5.91789C34.3626 8.13452 37.8522 12.0354 41.0859 16.4594C44.2867 20.8385 47.0979 25.5353 49.1164 29.1559C49.9344 30.6231 50.6186 31.9072 51.142 32.9132C50.8628 33.0842 50.5906 33.2634 50.3277 33.4447C49.062 34.3177 47.6651 35.4892 46.1995 36.8468C43.2627 39.5673 39.8636 43.2101 36.4041 47.1655C30.9439 53.4085 25.2347 60.544 20.7906 66.3245C20.5589 65.2008 20.3038 63.9229 20.0368 62.5175C18.9877 56.9951 17.7588 49.5296 17.0284 41.7216C16.2959 33.89 16.0767 25.831 16.994 19.0798C17.9308 12.1848 19.9643 7.33308 23.1064 5.06246Z" fill="white" stroke="black" stroke-width="5"/>
<path d="M117.868 4.14534C116.722 3.28939 115.58 3.01215 114.371 3.12118C113.091 3.23656 111.607 3.80152 109.935 4.87428C106.564 7.03738 103.012 10.8821 99.7085 15.2539C96.4382 19.5814 93.5523 24.2327 91.4763 27.8207C90.635 29.2746 89.9304 30.5476 89.391 31.5451C89.6675 31.7206 89.9368 31.9041 90.1968 32.0896C91.4484 32.9827 92.8264 34.1763 94.2701 35.5571C97.1632 38.3242 100.504 42.0207 103.9 46.0308C109.259 52.3601 114.854 59.5859 119.205 65.4365C119.455 64.3167 119.73 63.043 120.02 61.642C121.157 56.1371 122.505 48.6921 123.36 40.8968C124.217 33.0779 124.565 25.0234 123.755 18.2584C122.929 11.3494 120.973 6.4658 117.868 4.14534Z" fill="white" stroke="black" stroke-width="5"/>
<path d="M121.711 80.2958C121.711 109.189 98.2883 132.611 69.3954 132.611C40.5026 132.611 17.0803 109.189 17.0803 80.2958C17.0803 51.403 40.5026 27.9807 69.3954 27.9807C98.2883 27.9807 121.711 51.403 121.711 80.2958Z" fill="white" stroke="black" stroke-width="5"/>
<ellipse cx="46.2974" cy="74.4351" rx="8.27398" ry="9.65297" fill="black"/>
<ellipse cx="93.1832" cy="74.4351" rx="8.27398" ry="9.65297" fill="black"/>
<path d="M79.7381 87.1908C79.7381 90.8083 75.0716 95.8095 69.7404 95.8095C64.4092 95.8095 59.7427 90.8083 59.7427 87.1908C59.7427 83.5732 64.4092 82.709 69.7404 82.709C75.0716 82.709 79.7381 83.5732 79.7381 87.1908Z" fill="black"/>
<path d="M48.3657 98.9122C52.3878 103.854 62.0178 110.289 68.3612 96.499" stroke="black" stroke-width="5" stroke-linecap="round"/>
<path d="M89.7358 98.9122C85.7138 103.854 76.0838 110.289 69.7404 96.499" stroke="black" stroke-width="5" stroke-linecap="round"/>
<path d="M111.11 87.8802C116.511 84.088 129.244 76.8483 136.966 78.2273" stroke="black" stroke-width="4" stroke-linecap="round"/>
<path d="M113.178 95.12C116.741 94.6603 124.831 94.0168 128.692 95.12" stroke="black" stroke-width="4" stroke-linecap="round"/>
<path d="M109.731 102.704C113.753 102.819 123.107 103.601 128.347 105.807" stroke="black" stroke-width="4" stroke-linecap="round"/>
<path d="M28.0256 87.8802C22.6246 84.088 9.89183 76.8483 2.16945 78.2273" stroke="black" stroke-width="4" stroke-linecap="round"/>
<path d="M25.957 95.12C22.3946 94.6603 14.3045 94.0168 10.4433 95.12" stroke="black" stroke-width="4" stroke-linecap="round"/>
<path d="M29.4045 102.704C25.3825 102.819 16.0283 103.601 10.7881 105.807" stroke="black" stroke-width="4" stroke-linecap="round"/>
<path d="M25.748 10.417C30.4063 9.12323 38.1732 20.0689 41.7563 25.607C42.8752 27.3364 42.4019 29.6108 40.7336 30.8189L28.7186 39.5194C26.3604 41.2271 23.0672 39.9202 22.6492 37.0388C21.3401 28.0153 19.8954 12.0425 25.748 10.417Z" fill="#FF9F8A"/>
<path d="M113.868 10.417C109.21 9.12323 101.443 20.0689 97.8597 25.607C96.7408 27.3364 97.214 29.6108 98.8824 30.8189L110.897 39.5194C113.256 41.2271 116.549 39.9202 116.967 37.0388C118.276 28.0153 119.721 12.0425 113.868 10.417Z" fill="#FF9F8A"/>
<path d="M80.0828 57.8768H114.558V75.1143C114.558 84.6342 106.84 92.3517 97.3202 92.3517V92.3517C87.8002 92.3517 80.0828 84.6342 80.0828 75.1143V57.8768Z" fill="black"/>
<path d="M89.6682 68.6491L105.639 83.0227" stroke="#FFA18D" stroke-width="5" stroke-linecap="round"/>
<path d="M105.639 68.6491L89.668 83.0227" stroke="#FFA18D" stroke-width="5" stroke-linecap="round"/>
<path d="M111.11 62.3585C112.949 61.0945 116.833 58.1526 117.66 56.4978" stroke="black" stroke-width="5"/>
<path d="M42.8264 35.7032C44.7215 36.881 59.7191 57.4224 83.2279 60.6654" stroke="black" stroke-width="5"/>
</svg>
